<?xml version="1.0" encoding="UTF-8"?>
<svg width="38px" height="38px" viewBox="0 0 38 38" version="1.1" xmlns="http://www.w3.org/2000/svg" xmlns:xlink="http://www.w3.org/1999/xlink">
    <!-- Generator: Sketch 62 (91390) - https://sketch.com -->
    <title>info</title>
    <desc>Created with Sketch.</desc>
    <g id="info" stroke="none" stroke-width="1" fill="none" fill-rule="evenodd">
        <path d="M19,8 C25.0751322,8 30,12.9248678 30,19 C30,25.0751322 25.0751322,30 19,30 C12.9248678,30 8,25.0751322 8,19 C8,12.9248678 12.9248678,8 19,8 Z M19,9.5 C13.7532949,9.5 9.5,13.7532949 9.5,19 C9.5,24.2467051 13.7532949,28.5 19,28.5 C24.2467051,28.5 28.5,24.2467051 28.5,19 C28.5,13.7532949 24.2467051,9.5 19,9.5 Z M19.75,17 L19.75,24 L18.25,24 L18.25,17 L19.75,17 Z M19,13 C19.5522847,13 20,13.4477153 20,14 C20,14.5522847 19.5522847,15 19,15 C18.4477153,15 18,14.5522847 18,14 C18,13.4477153 18.4477153,13 19,13 Z" id="shape" fill="#000000" fill-rule="nonzero"></path>
    </g>
</svg>
