<svg width="0" height="0" xmlns="http://www.w3.org/2000/svg" style="display: none;">
  <symbol viewBox="0 0 20 20" id="add">
    <svg width="20" height="20" xmlns="http://www.w3.org/2000/svg"><path d="M19.206 11.678h-8.163v8.163H8.322v-8.163H.159V8.957h8.163V.794h2.721v8.163h8.163z" fill="inherit" fill-rule="evenodd"/></svg>
  </symbol>

<symbol viewBox="0 0 80 160" id="arrow-left">
  <svg width="80px" height="160px" xmlns="http://www.w3.org/2000/svg">
    <path d="M1.34861921,3.32118828 L5.05230082,0.84713206 C6.57105422,-0.167393942 8.75579589,0.07207411 9.93205786,1.38199891 C9.93597763,1.38636399 9.93988326,1.39073838 9.94377497,1.39512206 L79.7729985,80.0525481 L9.92759653,158.626184 C8.76120673,159.938331 6.58378819,160.189147 5.05904169,159.186991 L1.38685725,156.773406 C-0.141058391,155.769167 -0.435798031,153.886759 0.728537841,152.568932 C0.730248577,152.566996 0.73196205,152.565061 0.733678247,152.563129 L65.1228387,80.0525481 L0.716949018,7.51706099 C-0.446555202,6.20669409 -0.164300791,4.33181757 1.34861921,3.32118828 Z" fill="inherit" transform="translate(39.886499, 80.009913) scale(-1, 1) translate(-39.886499, -80.009913) "></path>
  </svg>
</symbol>
<symbol viewBox="0 0 80 160" id="arrow-right">
  <svg width="80px" height="160px" xmlns="http://www.w3.org/2000/svg">
    <path d="M1.34861921,3.32118828 L5.05230082,0.84713206 C6.57105422,-0.167393942 8.75579589,0.07207411 9.93205786,1.38199891 C9.93597763,1.38636399 9.93988326,1.39073838 9.94377497,1.39512206 L79.7729985,80.0525481 L9.92759653,158.626184 C8.76120673,159.938331 6.58378819,160.189147 5.05904169,159.186991 L1.38685725,156.773406 C-0.141058391,155.769167 -0.435798031,153.886759 0.728537841,152.568932 C0.730248577,152.566996 0.73196205,152.565061 0.733678247,152.563129 L65.1228387,80.0525481 L0.716949018,7.51706099 C-0.446555202,6.20669409 -0.164300791,4.33181757 1.34861921,3.32118828 Z" fill="inherit"></path>
  </svg>
</symbol>

</svg>
